<?xml version="1.0" standalone="no"?>
<!DOCTYPE svg PUBLIC "-//W3C//DTD SVG 20010904//EN"
 "http://www.w3.org/TR/2001/REC-SVG-20010904/DTD/svg10.dtd">
<svg version="1.0" xmlns="http://www.w3.org/2000/svg"
 width="250.000000pt" height="242.000000pt" viewBox="0 0 250.000000 242.000000"
 preserveAspectRatio="xMidYMid meet">
<metadata>
Created by potrace 1.15, written by Peter Selinger 2001-2017
</metadata>
<g transform="translate(0.000000,242.000000) scale(0.100000,-0.100000)"
fill="#000000" stroke="none">
<path d="M1055 2350 c-93 -10 -145 -25 -231 -65 -92 -42 -146 -92 -184 -169
-134 -271 47 -725 504 -1265 l79 -93 -119 -119 c-66 -66 -128 -122 -139 -124
-11 -2 -83 -9 -160 -15 -425 -31 -708 -123 -762 -248 -29 -70 28 -167 116
-193 142 -42 424 95 735 359 l88 76 250 -1 c229 0 252 -2 273 -19 13 -11 72
-59 132 -107 208 -170 396 -281 540 -318 95 -24 146 -24 199 0 74 34 119 120
94 181 -51 123 -407 234 -858 268 l-114 9 -119 119 c-65 65 -119 125 -119 132
0 7 32 50 71 95 292 338 485 673 533 927 58 305 -67 489 -378 556 -83 18 -330
26 -431 14z m266 -135 c60 -21 104 -58 136 -113 24 -40 28 -58 28 -122 0 -64
-4 -82 -28 -122 -100 -171 -354 -171 -454 0 -24 40 -28 58 -28 122 0 64 4 82
28 122 63 108 197 155 318 113z m-33 -609 c55 -29 77 -63 77 -121 0 -58 -22
-92 -77 -121 -57 -29 -128 -13 -178 41 -33 35 -36 121 -5 155 50 57 126 76
183 46z m-9 -410 c67 -35 65 -143 -4 -174 -91 -41 -179 51 -131 137 26 47 84
63 135 37z m-901 -892 c48 -33 15 -110 -62 -145 -80 -36 -156 -16 -156 40 0
81 149 153 218 105z m1888 -30 c41 -20 84 -68 84 -95 0 -80 -157 -78 -225 3
-30 36 -32 61 -5 88 25 25 97 27 146 4z"/>
</g>
</svg>
